<mxfile host="app.diagrams.net" modified="2023-09-13T22:08:20.288Z" agent="Mozilla/5.0 (Windows NT 10.0; Win64; x64) AppleWebKit/537.36 (KHTML, like Gecko) Chrome/116.0.0.0 Safari/537.36" etag="ZkhX-ZbKKGDE-0A7AuYV" version="21.7.2" type="device">
  <diagram name="Page-1" id="uOLwE0F4HgcXd_hXc5N0">
    <mxGraphModel dx="2074" dy="1152" grid="1" gridSize="10" guides="1" tooltips="1" connect="1" arrows="1" fold="1" page="1" pageScale="1" pageWidth="1169" pageHeight="827" math="0" shadow="0">
      <root>
        <mxCell id="0" />
        <mxCell id="1" parent="0" />
        <mxCell id="9wxsjCB20GXsR78zxzB9-3" value="" style="rounded=0;whiteSpace=wrap;html=1;fillColor=none;strokeWidth=2;" vertex="1" parent="1">
          <mxGeometry x="15" y="10" width="595" height="760" as="geometry" />
        </mxCell>
        <mxCell id="PyYykPoJx6dfEjd_b9g2-2" value="cdr-auth-server" style="swimlane;whiteSpace=wrap;html=1;" parent="1" vertex="1">
          <mxGeometry x="30" y="550" width="280" height="180" as="geometry" />
        </mxCell>
        <mxCell id="9Ecw4-EGteXB8FxIN48v-2" value="image: cdradmin/cdr-auth-server" style="verticalAlign=top;verticalLabelPosition=bottom;labelPosition=center;align=center;html=1;outlineConnect=0;fillColor=#F82889;strokeColor=#6c8ebf;gradientDirection=north;strokeWidth=2;shape=mxgraph.networks.desktop_pc;gradientColor=#6666FF;" parent="PyYykPoJx6dfEjd_b9g2-2" vertex="1">
          <mxGeometry x="90" y="83" width="40" height="57" as="geometry" />
        </mxCell>
        <mxCell id="tYwpbNncCeOqDaBQJhlf-9" value="" style="edgeStyle=orthogonalEdgeStyle;rounded=0;orthogonalLoop=1;jettySize=auto;html=1;" parent="PyYykPoJx6dfEjd_b9g2-2" source="PyYykPoJx6dfEjd_b9g2-44" target="PyYykPoJx6dfEjd_b9g2-45" edge="1">
          <mxGeometry relative="1" as="geometry" />
        </mxCell>
        <mxCell id="PyYykPoJx6dfEjd_b9g2-44" value="" style="shape=requiredInterface;html=1;fontSize=11;align=center;fillColor=none;points=[];aspect=fixed;resizable=0;verticalAlign=bottom;labelPosition=center;verticalLabelPosition=top;flipH=1;" parent="PyYykPoJx6dfEjd_b9g2-2" vertex="1">
          <mxGeometry x="180" y="60" width="5" height="10" as="geometry" />
        </mxCell>
        <mxCell id="PyYykPoJx6dfEjd_b9g2-45" value="8001/8000" style="html=1;rounded=0;" parent="PyYykPoJx6dfEjd_b9g2-2" vertex="1">
          <mxGeometry x="90" y="40" width="70" height="30" as="geometry" />
        </mxCell>
        <mxCell id="9Ecw4-EGteXB8FxIN48v-73" value="" style="edgeStyle=orthogonalEdgeStyle;rounded=0;orthogonalLoop=1;jettySize=auto;html=1;entryX=0.25;entryY=0.283;entryDx=0;entryDy=0;entryPerimeter=0;startArrow=classic;startFill=1;" parent="1" source="9Ecw4-EGteXB8FxIN48v-4" target="9Ecw4-EGteXB8FxIN48v-11" edge="1">
          <mxGeometry relative="1" as="geometry" />
        </mxCell>
        <mxCell id="9Ecw4-EGteXB8FxIN48v-74" value="" style="edgeStyle=elbowEdgeStyle;elbow=vertical;endArrow=classic;html=1;curved=0;rounded=0;startArrow=classic;startFill=1;" parent="1" source="9Ecw4-EGteXB8FxIN48v-4" target="9Ecw4-EGteXB8FxIN48v-5" edge="1">
          <mxGeometry width="50" height="50" relative="1" as="geometry">
            <mxPoint x="844.5" y="314" as="sourcePoint" />
            <mxPoint x="880" y="180" as="targetPoint" />
          </mxGeometry>
        </mxCell>
        <mxCell id="PyYykPoJx6dfEjd_b9g2-1" value="mock-data-recipient" style="swimlane;whiteSpace=wrap;html=1;" parent="1" vertex="1">
          <mxGeometry x="705" y="120" width="225" height="200" as="geometry" />
        </mxCell>
        <mxCell id="9Ecw4-EGteXB8FxIN48v-5" value="consumerdataright/mock-data-recipient" style="verticalAlign=top;verticalLabelPosition=bottom;labelPosition=center;align=center;html=1;outlineConnect=0;fillColor=#6666FF;strokeColor=#6c8ebf;gradientDirection=north;strokeWidth=2;shape=mxgraph.networks.desktop_pc;" parent="PyYykPoJx6dfEjd_b9g2-1" vertex="1">
          <mxGeometry x="97.5" y="50" width="30" height="60" as="geometry" />
        </mxCell>
        <mxCell id="PyYykPoJx6dfEjd_b9g2-39" value="9001" style="html=1;rounded=0;" parent="PyYykPoJx6dfEjd_b9g2-1" vertex="1">
          <mxGeometry x="15" y="60" width="30" height="30" as="geometry" />
        </mxCell>
        <mxCell id="PyYykPoJx6dfEjd_b9g2-40" value="" style="endArrow=none;html=1;rounded=0;align=center;verticalAlign=top;endFill=0;labelBackgroundColor=none;endSize=2;" parent="PyYykPoJx6dfEjd_b9g2-1" source="PyYykPoJx6dfEjd_b9g2-39" target="PyYykPoJx6dfEjd_b9g2-41" edge="1">
          <mxGeometry relative="1" as="geometry" />
        </mxCell>
        <mxCell id="PyYykPoJx6dfEjd_b9g2-41" value="" style="shape=requiredInterface;html=1;fontSize=11;align=center;fillColor=none;points=[];aspect=fixed;resizable=0;verticalAlign=bottom;labelPosition=center;verticalLabelPosition=top;flipH=1;" parent="PyYykPoJx6dfEjd_b9g2-1" vertex="1">
          <mxGeometry x="70" y="70" width="5" height="10" as="geometry" />
        </mxCell>
        <mxCell id="PyYykPoJx6dfEjd_b9g2-4" value="mongodb" style="swimlane;whiteSpace=wrap;html=1;" parent="1" vertex="1">
          <mxGeometry x="30" y="370" width="280" height="160" as="geometry" />
        </mxCell>
        <mxCell id="9Ecw4-EGteXB8FxIN48v-10" value="MongoDB" style="shape=datastore;whiteSpace=wrap;html=1;fillColor=#fff2cc;strokeColor=#d6b656;" parent="PyYykPoJx6dfEjd_b9g2-4" vertex="1">
          <mxGeometry x="20" y="65" width="60" height="60" as="geometry" />
        </mxCell>
        <mxCell id="PyYykPoJx6dfEjd_b9g2-33" value="27107" style="html=1;rounded=0;" parent="PyYykPoJx6dfEjd_b9g2-4" vertex="1">
          <mxGeometry x="100" y="55" width="50" height="30" as="geometry" />
        </mxCell>
        <mxCell id="PyYykPoJx6dfEjd_b9g2-34" value="" style="endArrow=none;html=1;rounded=0;align=center;verticalAlign=top;endFill=0;labelBackgroundColor=none;endSize=2;" parent="PyYykPoJx6dfEjd_b9g2-4" source="PyYykPoJx6dfEjd_b9g2-33" target="PyYykPoJx6dfEjd_b9g2-35" edge="1">
          <mxGeometry relative="1" as="geometry" />
        </mxCell>
        <mxCell id="PyYykPoJx6dfEjd_b9g2-35" value="" style="shape=requiredInterface;html=1;fontSize=11;align=center;fillColor=none;points=[];aspect=fixed;resizable=0;verticalAlign=bottom;labelPosition=center;verticalLabelPosition=top;flipH=1;" parent="PyYykPoJx6dfEjd_b9g2-4" vertex="1">
          <mxGeometry x="175" y="65" width="5" height="10" as="geometry" />
        </mxCell>
        <mxCell id="PyYykPoJx6dfEjd_b9g2-5" value="mssql" style="swimlane;whiteSpace=wrap;html=1;" parent="1" vertex="1">
          <mxGeometry x="960" y="370" width="200" height="200" as="geometry" />
        </mxCell>
        <mxCell id="9Ecw4-EGteXB8FxIN48v-11" value="MS SQL" style="shape=datastore;whiteSpace=wrap;html=1;fillColor=#fff2cc;strokeColor=#d6b656;" parent="PyYykPoJx6dfEjd_b9g2-5" vertex="1">
          <mxGeometry x="59" y="60" width="60" height="60" as="geometry" />
        </mxCell>
        <mxCell id="PyYykPoJx6dfEjd_b9g2-36" value="1433" style="html=1;rounded=0;" parent="PyYykPoJx6dfEjd_b9g2-5" vertex="1">
          <mxGeometry x="50" y="150" width="30" height="30" as="geometry" />
        </mxCell>
        <mxCell id="PyYykPoJx6dfEjd_b9g2-37" value="" style="endArrow=none;html=1;rounded=0;align=center;verticalAlign=top;endFill=0;labelBackgroundColor=none;endSize=2;" parent="PyYykPoJx6dfEjd_b9g2-5" source="PyYykPoJx6dfEjd_b9g2-36" target="PyYykPoJx6dfEjd_b9g2-38" edge="1">
          <mxGeometry relative="1" as="geometry" />
        </mxCell>
        <mxCell id="PyYykPoJx6dfEjd_b9g2-38" value="" style="shape=requiredInterface;html=1;fontSize=11;align=center;fillColor=none;points=[];aspect=fixed;resizable=0;verticalAlign=bottom;labelPosition=center;verticalLabelPosition=top;flipH=1;" parent="PyYykPoJx6dfEjd_b9g2-5" vertex="1">
          <mxGeometry x="105" y="160" width="5" height="10" as="geometry" />
        </mxCell>
        <mxCell id="PyYykPoJx6dfEjd_b9g2-6" value="mock-register" style="swimlane;whiteSpace=wrap;html=1;" parent="1" vertex="1">
          <mxGeometry x="710" y="370" width="220" height="200" as="geometry" />
        </mxCell>
        <mxCell id="9Ecw4-EGteXB8FxIN48v-4" value="consumerdataright/mock-register" style="verticalAlign=top;verticalLabelPosition=bottom;labelPosition=center;align=center;html=1;outlineConnect=0;fillColor=#6666FF;strokeColor=#6c8ebf;gradientDirection=north;strokeWidth=2;shape=mxgraph.networks.desktop_pc;gradientColor=none;" parent="PyYykPoJx6dfEjd_b9g2-6" vertex="1">
          <mxGeometry x="80" y="77" width="30" height="60" as="geometry" />
        </mxCell>
        <mxCell id="PyYykPoJx6dfEjd_b9g2-10" value="mock-data-holder" style="swimlane;whiteSpace=wrap;html=1;" parent="1" vertex="1">
          <mxGeometry x="30" y="200" width="280" height="160" as="geometry" />
        </mxCell>
        <mxCell id="PyYykPoJx6dfEjd_b9g2-30" value="3005" style="html=1;rounded=0;" parent="PyYykPoJx6dfEjd_b9g2-10" vertex="1">
          <mxGeometry x="120" y="50" width="30" height="30" as="geometry" />
        </mxCell>
        <mxCell id="PyYykPoJx6dfEjd_b9g2-31" value="" style="endArrow=none;html=1;rounded=0;align=center;verticalAlign=top;endFill=0;labelBackgroundColor=none;endSize=2;" parent="PyYykPoJx6dfEjd_b9g2-10" source="PyYykPoJx6dfEjd_b9g2-30" target="PyYykPoJx6dfEjd_b9g2-32" edge="1">
          <mxGeometry relative="1" as="geometry" />
        </mxCell>
        <mxCell id="PyYykPoJx6dfEjd_b9g2-32" value="" style="shape=requiredInterface;html=1;fontSize=11;align=center;fillColor=none;points=[];aspect=fixed;resizable=0;verticalAlign=bottom;labelPosition=center;verticalLabelPosition=top;flipH=1;" parent="PyYykPoJx6dfEjd_b9g2-10" vertex="1">
          <mxGeometry x="175" y="60" width="5" height="10" as="geometry" />
        </mxCell>
        <mxCell id="PyYykPoJx6dfEjd_b9g2-12" value="mtls-gateway" style="swimlane;whiteSpace=wrap;html=1;" parent="1" vertex="1">
          <mxGeometry x="340" y="140" width="200" height="160" as="geometry" />
        </mxCell>
        <mxCell id="9Ecw4-EGteXB8FxIN48v-50" value="i: cdradmin/mtls-gateway" style="outlineConnect=0;dashed=0;verticalLabelPosition=bottom;verticalAlign=top;align=center;html=1;shape=mxgraph.aws3.api_gateway;fillColor=#6666FF;gradientColor=#F82889;" parent="PyYykPoJx6dfEjd_b9g2-12" vertex="1">
          <mxGeometry x="50" y="50" width="50" height="70" as="geometry" />
        </mxCell>
        <mxCell id="PyYykPoJx6dfEjd_b9g2-23" value="8082" style="html=1;rounded=0;" parent="PyYykPoJx6dfEjd_b9g2-12" vertex="1">
          <mxGeometry x="110" y="70" width="30" height="30" as="geometry" />
        </mxCell>
        <mxCell id="PyYykPoJx6dfEjd_b9g2-24" value="" style="endArrow=none;html=1;rounded=0;align=center;verticalAlign=top;endFill=0;labelBackgroundColor=none;endSize=2;" parent="PyYykPoJx6dfEjd_b9g2-12" source="PyYykPoJx6dfEjd_b9g2-23" target="PyYykPoJx6dfEjd_b9g2-25" edge="1">
          <mxGeometry relative="1" as="geometry" />
        </mxCell>
        <mxCell id="PyYykPoJx6dfEjd_b9g2-25" value="" style="shape=requiredInterface;html=1;fontSize=11;align=center;fillColor=none;points=[];aspect=fixed;resizable=0;verticalAlign=bottom;labelPosition=center;verticalLabelPosition=top;flipH=1;" parent="PyYykPoJx6dfEjd_b9g2-12" vertex="1">
          <mxGeometry x="165" y="80" width="5" height="10" as="geometry" />
        </mxCell>
        <mxCell id="PyYykPoJx6dfEjd_b9g2-55" value="mtls-server.pfx" style="text;strokeColor=none;align=center;fillColor=none;html=1;verticalAlign=middle;whiteSpace=wrap;rounded=0;" parent="PyYykPoJx6dfEjd_b9g2-12" vertex="1">
          <mxGeometry x="70" y="30" width="90" height="30" as="geometry" />
        </mxCell>
        <mxCell id="PyYykPoJx6dfEjd_b9g2-13" value="tls-gateway" style="swimlane;whiteSpace=wrap;html=1;" parent="1" vertex="1">
          <mxGeometry x="340" y="330" width="200" height="160" as="geometry" />
        </mxCell>
        <mxCell id="9Ecw4-EGteXB8FxIN48v-51" value="i: cdradmin/tls-gateway" style="outlineConnect=0;dashed=0;verticalLabelPosition=bottom;verticalAlign=top;align=center;html=1;shape=mxgraph.aws3.api_gateway;fillColor=#6666FF;gradientColor=#F82889;" parent="PyYykPoJx6dfEjd_b9g2-13" vertex="1">
          <mxGeometry x="40" y="60" width="50" height="60" as="geometry" />
        </mxCell>
        <mxCell id="PyYykPoJx6dfEjd_b9g2-27" value="8081" style="html=1;rounded=0;" parent="PyYykPoJx6dfEjd_b9g2-13" vertex="1">
          <mxGeometry x="125" y="75" width="30" height="30" as="geometry" />
        </mxCell>
        <mxCell id="PyYykPoJx6dfEjd_b9g2-28" value="" style="endArrow=none;html=1;rounded=0;align=center;verticalAlign=top;endFill=0;labelBackgroundColor=none;endSize=2;" parent="PyYykPoJx6dfEjd_b9g2-13" source="PyYykPoJx6dfEjd_b9g2-27" target="PyYykPoJx6dfEjd_b9g2-29" edge="1">
          <mxGeometry relative="1" as="geometry" />
        </mxCell>
        <mxCell id="PyYykPoJx6dfEjd_b9g2-29" value="" style="shape=requiredInterface;html=1;fontSize=11;align=center;fillColor=none;points=[];aspect=fixed;resizable=0;verticalAlign=bottom;labelPosition=center;verticalLabelPosition=top;flipH=1;" parent="PyYykPoJx6dfEjd_b9g2-13" vertex="1">
          <mxGeometry x="180" y="85" width="5" height="10" as="geometry" />
        </mxCell>
        <mxCell id="PyYykPoJx6dfEjd_b9g2-56" value="tls-server.pfx" style="text;strokeColor=none;align=center;fillColor=none;html=1;verticalAlign=middle;whiteSpace=wrap;rounded=0;" parent="PyYykPoJx6dfEjd_b9g2-13" vertex="1">
          <mxGeometry x="80" y="30" width="90" height="30" as="geometry" />
        </mxCell>
        <mxCell id="PyYykPoJx6dfEjd_b9g2-52" value="" style="edgeStyle=segmentEdgeStyle;endArrow=classic;html=1;curved=0;rounded=0;endSize=8;startSize=8;exitX=0.5;exitY=0;exitDx=0;exitDy=0;" parent="1" source="9Ecw4-EGteXB8FxIN48v-10" target="9Ecw4-EGteXB8FxIN48v-1" edge="1">
          <mxGeometry width="50" height="50" relative="1" as="geometry">
            <mxPoint x="70" y="480" as="sourcePoint" />
            <mxPoint x="120" y="430" as="targetPoint" />
          </mxGeometry>
        </mxCell>
        <mxCell id="tYwpbNncCeOqDaBQJhlf-1" value="authserver-ui" style="swimlane;whiteSpace=wrap;html=1;" parent="1" vertex="1">
          <mxGeometry x="30" y="20" width="280" height="160" as="geometry" />
        </mxCell>
        <mxCell id="tYwpbNncCeOqDaBQJhlf-2" value="image: cdradmin/authserver-ui" style="verticalAlign=top;verticalLabelPosition=bottom;labelPosition=center;align=center;html=1;outlineConnect=0;fillColor=#F82889;strokeColor=#b85450;gradientDirection=north;strokeWidth=2;shape=mxgraph.networks.desktop_pc;gradientColor=#6666FF;" parent="tYwpbNncCeOqDaBQJhlf-1" vertex="1">
          <mxGeometry x="70" y="60" width="30" height="60" as="geometry" />
        </mxCell>
        <mxCell id="tYwpbNncCeOqDaBQJhlf-3" value="3000" style="html=1;rounded=0;" parent="tYwpbNncCeOqDaBQJhlf-1" vertex="1">
          <mxGeometry x="120" y="50" width="30" height="30" as="geometry" />
        </mxCell>
        <mxCell id="tYwpbNncCeOqDaBQJhlf-4" value="" style="endArrow=none;html=1;rounded=0;align=center;verticalAlign=top;endFill=0;labelBackgroundColor=none;endSize=2;" parent="tYwpbNncCeOqDaBQJhlf-1" source="tYwpbNncCeOqDaBQJhlf-3" target="tYwpbNncCeOqDaBQJhlf-5" edge="1">
          <mxGeometry relative="1" as="geometry" />
        </mxCell>
        <mxCell id="tYwpbNncCeOqDaBQJhlf-5" value="" style="shape=requiredInterface;html=1;fontSize=11;align=center;fillColor=none;points=[];aspect=fixed;resizable=0;verticalAlign=bottom;labelPosition=center;verticalLabelPosition=top;flipH=1;" parent="tYwpbNncCeOqDaBQJhlf-1" vertex="1">
          <mxGeometry x="175" y="60" width="5" height="10" as="geometry" />
        </mxCell>
        <mxCell id="tYwpbNncCeOqDaBQJhlf-10" value="client.pfx" style="shape=singleArrow;direction=west;whiteSpace=wrap;html=1;" parent="1" vertex="1">
          <mxGeometry x="540" y="180" width="160" height="60" as="geometry" />
        </mxCell>
        <mxCell id="WP-_iuREx8wpNkzls26Q-1" value="DSB" style="ellipse;whiteSpace=wrap;html=1;fillColor=#F82889;" parent="1" vertex="1">
          <mxGeometry x="760" y="680" width="80" height="80" as="geometry" />
        </mxCell>
        <mxCell id="WP-_iuREx8wpNkzls26Q-2" value="ACCC&amp;nbsp;" style="ellipse;whiteSpace=wrap;html=1;fillColor=#6666FF;" parent="1" vertex="1">
          <mxGeometry x="900" y="680" width="80" height="80" as="geometry" />
        </mxCell>
        <mxCell id="9wxsjCB20GXsR78zxzB9-5" value="mock-data-holder" style="swimlane;whiteSpace=wrap;html=1;" vertex="1" parent="1">
          <mxGeometry x="30" y="200" width="280" height="160" as="geometry" />
        </mxCell>
        <mxCell id="9wxsjCB20GXsR78zxzB9-7" value="3005" style="html=1;rounded=0;" vertex="1" parent="9wxsjCB20GXsR78zxzB9-5">
          <mxGeometry x="120" y="50" width="30" height="30" as="geometry" />
        </mxCell>
        <mxCell id="9wxsjCB20GXsR78zxzB9-8" value="" style="endArrow=none;html=1;rounded=0;align=center;verticalAlign=top;endFill=0;labelBackgroundColor=none;endSize=2;" edge="1" parent="9wxsjCB20GXsR78zxzB9-5" source="9wxsjCB20GXsR78zxzB9-7" target="9wxsjCB20GXsR78zxzB9-9">
          <mxGeometry relative="1" as="geometry" />
        </mxCell>
        <mxCell id="9wxsjCB20GXsR78zxzB9-9" value="" style="shape=requiredInterface;html=1;fontSize=11;align=center;fillColor=none;points=[];aspect=fixed;resizable=0;verticalAlign=bottom;labelPosition=center;verticalLabelPosition=top;flipH=1;" vertex="1" parent="9wxsjCB20GXsR78zxzB9-5">
          <mxGeometry x="175" y="60" width="5" height="10" as="geometry" />
        </mxCell>
        <mxCell id="9wxsjCB20GXsR78zxzB9-10" value="Resource API" style="text;strokeColor=none;align=center;fillColor=none;html=1;verticalAlign=middle;whiteSpace=wrap;rounded=0;" vertex="1" parent="9wxsjCB20GXsR78zxzB9-5">
          <mxGeometry x="190" y="50" width="60" height="30" as="geometry" />
        </mxCell>
        <mxCell id="9Ecw4-EGteXB8FxIN48v-1" value="i: cdradmin/dsn-data-loader" style="verticalAlign=top;verticalLabelPosition=bottom;labelPosition=center;align=center;html=1;outlineConnect=0;fillColor=#F82889;strokeColor=#b85450;gradientDirection=north;strokeWidth=2;shape=mxgraph.networks.desktop_pc;" parent="9wxsjCB20GXsR78zxzB9-5" vertex="1">
          <mxGeometry x="70" y="35" width="30" height="60" as="geometry" />
        </mxCell>
        <mxCell id="9wxsjCB20GXsR78zxzB9-11" value="dsb-data-loader" style="swimlane;whiteSpace=wrap;html=1;" vertex="1" parent="1">
          <mxGeometry x="340" y="550" width="200" height="160" as="geometry" />
        </mxCell>
        <mxCell id="9wxsjCB20GXsR78zxzB9-12" value="cdradmin/dsb-data-loader" style="verticalAlign=top;verticalLabelPosition=bottom;labelPosition=center;align=center;html=1;outlineConnect=0;fillColor=#F82889;strokeColor=#b85450;gradientDirection=north;strokeWidth=2;shape=mxgraph.networks.desktop_pc;" vertex="1" parent="9wxsjCB20GXsR78zxzB9-11">
          <mxGeometry x="80" y="40" width="30" height="60" as="geometry" />
        </mxCell>
        <mxCell id="9wxsjCB20GXsR78zxzB9-15" value="" style="shape=requiredInterface;html=1;fontSize=11;align=center;fillColor=none;points=[];aspect=fixed;resizable=0;verticalAlign=bottom;labelPosition=center;verticalLabelPosition=top;flipH=1;" vertex="1" parent="9wxsjCB20GXsR78zxzB9-11">
          <mxGeometry x="175" y="60" width="5" height="10" as="geometry" />
        </mxCell>
        <mxCell id="9wxsjCB20GXsR78zxzB9-17" value="" style="endArrow=classic;html=1;rounded=0;" edge="1" parent="1" source="9wxsjCB20GXsR78zxzB9-12" target="9Ecw4-EGteXB8FxIN48v-10">
          <mxGeometry width="50" height="50" relative="1" as="geometry">
            <mxPoint x="320" y="570" as="sourcePoint" />
            <mxPoint x="370" y="520" as="targetPoint" />
            <Array as="points">
              <mxPoint x="390" y="530" />
            </Array>
          </mxGeometry>
        </mxCell>
        <mxCell id="9wxsjCB20GXsR78zxzB9-20" value="UI" style="text;strokeColor=none;align=center;fillColor=none;html=1;verticalAlign=middle;whiteSpace=wrap;rounded=0;" vertex="1" parent="1">
          <mxGeometry x="220" y="70" width="60" height="30" as="geometry" />
        </mxCell>
      </root>
    </mxGraphModel>
  </diagram>
</mxfile>
